<?xml version="1.0" encoding="UTF-8" standalone="no"?>
<!-- Generator: Adobe Illustrator 20.1.0, SVG Export Plug-In . SVG Version: 6.00 Build 0)  -->

<svg
   xmlns:dc="http://purl.org/dc/elements/1.1/"
   xmlns:cc="http://creativecommons.org/ns#"
   xmlns:rdf="http://www.w3.org/1999/02/22-rdf-syntax-ns#"
   xmlns:svg="http://www.w3.org/2000/svg"
   xmlns="http://www.w3.org/2000/svg"
   xmlns:sodipodi="http://sodipodi.sourceforge.net/DTD/sodipodi-0.dtd"
   xmlns:inkscape="http://www.inkscape.org/namespaces/inkscape"
   version="1.1"
   id="Layer_7"
   x="0px"
   y="0px"
   viewBox="0 0 16 16"
   style="enable-background:new 0 0 16 16;"
   xml:space="preserve"
   sodipodi:docname="link.svg"
   inkscape:version="0.92.4 (5da689c313, 2019-01-14)"><metadata
   id="metadata9"><rdf:RDF><cc:Work
       rdf:about=""><dc:format>image/svg+xml</dc:format><dc:type
         rdf:resource="http://purl.org/dc/dcmitype/StillImage" /></cc:Work></rdf:RDF></metadata><defs
   id="defs7" /><sodipodi:namedview
   pagecolor="#ffffff"
   bordercolor="#666666"
   borderopacity="1"
   objecttolerance="10"
   gridtolerance="10"
   guidetolerance="10"
   inkscape:pageopacity="0"
   inkscape:pageshadow="2"
   inkscape:window-width="1827"
   inkscape:window-height="1054"
   id="namedview5"
   showgrid="false"
   inkscape:zoom="14.75"
   inkscape:cx="8"
   inkscape:cy="8"
   inkscape:window-x="-8"
   inkscape:window-y="-8"
   inkscape:window-maximized="1"
   inkscape:current-layer="Layer_7" />
<path
   d="M8,3v2h1.6L6.3,8.3l1.4,1.4L11,6.4V8h2V3H8z M11.5,11c0,0.3-0.2,0.5-0.5,0.5H5c-0.3,0-0.5-0.2-0.5-0.5V5  c0-0.3,0.2-0.5,0.5-0.5h2V3H5C3.9,3,3,3.9,3,5v6c0,1.1,0.9,2,2,2h6c1.1,0,2-0.9,2-2V9h-1.5V11z"
   id="path2" />
<path
   style="stroke-width:0.06779661;fill:#808080"
   d="M 4.2837527,12.825955 C 3.8964469,12.688596 3.5102535,12.338471 3.2724167,11.909071 L 3.0711864,11.545763 3.0518932,8.113893 C 3.0332673,4.8007245 3.0373819,4.6692425 3.1708544,4.3125055 3.3525727,3.8268199 3.8242174,3.3535464 4.3062404,3.1731984 4.6173411,3.0568008 4.8345984,3.0372881 5.8194924,3.0372881 H 6.9694915 V 3.7491525 4.4610169 H 5.8816641 c -1.0645818,0 -1.0913834,0.00356 -1.2542373,0.1664099 L 4.4610169,4.7938367 v 3.1803794 c 0,3.1148469 0.0029,3.1840599 0.1405139,3.3590139 l 0.1405139,0.178634 h 3.2493167 c 3.1589216,0 3.2530886,-0.0038 3.3849096,-0.135593 0.124636,-0.124636 0.135593,-0.225988 0.135593,-1.254237 V 9.0033898 h 0.711865 0.711864 l -6.78e-4,1.2372882 c -6.1e-4,1.160517 -0.01064,1.258321 -0.161388,1.576271 -0.195463,0.41225 -0.581017,0.792884 -0.990492,0.977852 -0.294297,0.132941 -0.427348,0.137678 -3.7627116,0.133951 -2.8506043,-0.0032 -3.5066014,-0.02123 -3.7365863,-0.102797 z"
   id="path11"
   inkscape:connector-curvature="0" /><path
   style="fill:#333333;stroke-width:0.06779661"
   d="M 7.0194081,8.9516718 6.3600042,8.2897843 7.9867818,6.6640659 c 0.8947276,-0.8941451 1.6267775,-1.648838 1.6267775,-1.6770955 0,-0.028257 -0.3508474,-0.051377 -0.779661,-0.051377 H 8.0542373 V 3.9864407 3.0372881 h 2.4406777 2.440678 V 5.5118644 7.9864407 H 11.986441 11.037288 V 7.1564511 6.3264616 L 9.3927117,7.9700104 C 8.4881946,8.8739623 7.7325376,9.6135593 7.7134736,9.6135593 c -0.019064,0 -0.3313934,-0.2978493 -0.6940655,-0.6618875 z"
   id="path13"
   inkscape:connector-curvature="0" /><path
   style="fill:#4d4d4d;stroke-width:0.06779661"
   d="M 4.28883,12.795641 C 3.9875802,12.708041 3.5345403,12.292313 3.3058909,11.893656 L 3.1063572,11.545763 3.105721,8.0960014 C 3.1052606,5.6003111 3.1277058,4.5690649 3.1868787,4.3671878 3.2419491,4.1793071 3.4025395,3.9542687 3.6784041,3.6784041 4.1141572,3.2426511 4.3989948,3.1117574 4.943459,3.0970634 5.2184685,3.0896415 5.2254798,3.0851748 5.0372881,3.0372881 4.9154279,3.00628 5.2619287,2.9823188 5.9016949,2.9775129 l 1.0677966,-0.00802 V 3.7152542 4.4610169 H 5.8626654 c -1.0692935,0 -1.111825,0.00532 -1.2542373,0.156912 -0.1470094,0.1564843 -0.1474112,0.1655483 -0.1474112,3.3254007 0,2.7156914 0.014869,3.1972424 0.1040488,3.3696964 l 0.1040487,0.201209 3.2742084,-0.0036 c 2.8335582,-0.0032 3.2942572,-0.01769 3.4231752,-0.107985 0.08193,-0.05739 0.144541,-0.140178 0.139133,-0.183981 -0.0054,-0.0438 -0.0062,-0.560149 -0.0018,-1.147437 l 0.008,-1.0677942 h 0.722297 0.722297 l -0.0392,1.2441442 c -0.0442,1.402652 -0.08455,1.559351 -0.52439,2.036524 -0.561967,0.609662 -0.371899,0.584579 -4.3769819,0.577624 C 6.0793208,12.85833 4.4021469,12.82865 4.2888,12.79569 Z"
   id="path15"
   inkscape:connector-curvature="0" /><path
   style="fill:#666666;stroke-width:0.06779661"
   d="M 7.0407779,8.9617863 C 6.7032653,8.6405993 6.4271186,8.3439635 6.4271186,8.3025955 c 0,-0.041368 0.7245763,-0.8082396 1.6101695,-1.7041592 L 9.6474576,4.9694915 8.8169492,4.9504557 7.9864407,4.9314198 V 3.984354 3.0372881 h 2.4745763 2.474576 V 5.5118644 7.9864407 H 11.986441 11.037288 V 7.1666729 6.3469052 L 9.3993742,7.946334 C 8.4985216,8.8260198 7.7373801,9.5457627 7.7079487,9.5457627 c -0.029431,0 -0.3296582,-0.2627893 -0.6671708,-0.5839764 z"
   id="path17"
   inkscape:connector-curvature="0" /></svg>